<svg width="120" height="70" viewBox="0 0 120 70" fill="none" xmlns="http://www.w3.org/2000/svg">
<rect width="120" height="70" rx="10" fill="white"/>
<path d="M69.0133 19.1738H52.0225V50.1174H69.0133V19.1738Z" fill="#FF5F00"/>
<path d="M53.049 34.7191C53.049 28.6488 55.832 23.0227 60.5192 19.1733C52.0237 12.5108 39.8665 13.9914 33.1287 22.4305C26.5374 31.0177 28.0021 43.3064 36.3511 50.1169C43.3818 55.743 53.342 55.743 60.3727 50.1169C55.832 46.4155 53.049 40.7894 53.049 34.7191Z" fill="#EB001B"/>
<path d="M92.0005 34.4542C92.0005 45.2623 83.3586 54.1456 72.5196 54.1456C68.1254 54.1456 63.8777 52.665 60.5088 50C69.0042 43.3375 70.469 30.9009 63.7312 22.4617C62.7059 21.2773 61.6806 20.0928 60.5088 19.2045C69.0042 12.542 81.1615 14.0226 87.7528 22.4617C90.5358 25.719 92.0005 30.0125 92.0005 34.4542Z" fill="#F79E1B"/>
</svg>
