<svg width="120" height="70" viewBox="0 0 120 70" fill="none" xmlns="http://www.w3.org/2000/svg">
<rect width="120" height="70" rx="10" fill="white"/>
<path d="M54.6381 46.9412H48.3496L52.2829 22.4436H58.571L54.6381 46.9412Z" fill="#0082EE"/>
<path d="M77.433 23.043C76.1926 22.5473 74.2253 22 71.7927 22C65.5827 22 61.2096 25.3357 61.1828 30.1047C61.1312 33.6232 64.3138 35.5775 66.6941 36.7507C69.127 37.9495 69.954 38.732 69.954 39.8006C69.9293 41.4417 67.9881 42.1982 66.1776 42.1982C63.6669 42.1982 62.3217 41.8082 60.2774 40.8952L59.4493 40.5037L58.5693 46.0029C60.0442 46.6797 62.7615 47.2804 65.5827 47.3067C72.181 47.3067 76.4766 44.0226 76.5275 38.9405C76.5526 36.1518 74.8721 34.015 71.2491 32.2688C69.0496 31.148 67.7027 30.3922 67.7027 29.2453C67.7285 28.2027 68.8419 27.1348 71.3247 27.1348C73.369 27.0825 74.8711 27.5774 76.009 28.0728L76.5777 28.3329L77.433 23.043Z" fill="#0082EE"/>
<path d="M85.7918 38.2625C86.3097 36.8552 88.3024 31.4083 88.3024 31.4083C88.2763 31.4606 88.8193 29.975 89.1298 29.063L89.5693 31.1738C89.5693 31.1738 90.7601 37.0377 91.0187 38.2625C90.0359 38.2625 87.0339 38.2625 85.7918 38.2625ZM93.5541 22.4436H88.69C87.19 22.4436 86.0504 22.8863 85.4032 24.4762L76.0625 46.9408H82.6608C82.6608 46.9408 83.7471 43.9172 83.9806 43.266C84.7044 43.266 91.1232 43.266 92.0545 43.266C92.235 44.1261 92.8048 46.9408 92.8048 46.9408H98.6273L93.5541 22.4436Z" fill="#0082EE"/>
<path d="M43.0959 22.4436L36.9375 39.1486L36.2645 35.7606C35.1259 31.8514 31.5551 27.604 27.5703 25.4921L33.2112 46.9152H39.8611L49.7454 22.4436H43.0959Z" fill="#0082EE"/>
<path d="M31.221 22.4436H21.1035L21 22.9386C28.8923 24.9715 34.1192 29.8718 36.2667 35.7617L34.0673 24.5028C33.7052 22.9382 32.5924 22.4952 31.221 22.4436Z" fill="#FAA61A"/>
</svg>
